# xmcd
#
# Track frame offsets:
#	150
#	16457
#	24165
#	31574
#	43872
#	59378
#	67751
#	77917
#	84626
#	98676
#	109586
#	120835
#	139571
#	155815
#	172363
#
# Disc length: 2543 seconds
#
# Revision: 0
# Processed by: cddbd v1.5PL3 Copyright (c) Steve Scherf et al.
# Submitted via: audiograbber 1.83.01
#
DISCID=b409ed0f
DTITLE=Alan Davis - Heaven's Door
DYEAR=2004
DGENRE=Blues
TTITLE0=Knockin' On Heaven's Door
TTITLE1=Norwegian Wood
TTITLE2=Baby Let Me Follow You Down
TTITLE3=Love Is All Around Us
TTITLE4=Someone's Got A Hold Of My Heart
TTITLE5=Listen To Me
TTITLE6=You've Got To Hide Your Love Away
TTITLE7=That's Alright
TTITLE8=No One Can Make My Sunshine Smile
TTITLE9=Throw Down A Line
TTITLE10=One Too Many Mornings
TTITLE11=Isis
TTITLE12=Blind Willie McTell
TTITLE13=I And I
TTITLE14=It's All Over Now, Baby Blue
EXTD=
EXTT0=
EXTT1=
EXTT2=
EXTT3=
EXTT4=
EXTT5=
EXTT6=
EXTT7=
EXTT8=
EXTT9=
EXTT10=
EXTT11=
EXTT12=
EXTT13=
EXTT14=
PLAYORDER=
